<?xml version="1.0" encoding="utf-8"?>
<!-- Generator: Adobe Illustrator 22.0.1, SVG Export Plug-In . SVG Version: 6.00 Build 0)  -->
<svg version="1.1" id="Calque_1" xmlns="http://www.w3.org/2000/svg" xmlns:xlink="http://www.w3.org/1999/xlink" x="0px" y="0px"
	 viewBox="0 0 268.9 61.3" style="enable-background:new 0 0 268.9 61.3;" xml:space="preserve">
<style type="text/css">
	.st0{fill:#262D61;}
	.st1{fill:#518ABF;}
	.st2{fill:#E96412;}
</style>
<path class="st0" d="M174.1,36.3c-10,0-20,0-29.9,0c0.3,6.7,9.6,12.8,17.3,7.7c2.6-1.7,4.9-2,7.6-2c1,0,2,0,3,0
	c-1.1,5.6-10.5,12.6-20.1,10.7c-10.6-2.2-17.3-11.8-15.2-22.5c2-10,10.7-16.4,21.2-15.1C168.2,16.5,175.3,25.6,174.1,36.3z
	 M144.6,28.8c7.4,0,14.3,0,21.5,0c-2.5-4.5-6-6.7-10.7-6.8C150.7,22,147.3,24.5,144.6,28.8z"/>
<path class="st0" d="M205.5,26.4c-6.8-6.7-13.7-4.9-17.9-0.8c-4.2,4.1-4.5,11.5-0.8,15.7c5.1,5.8,11.2,5.8,18.6,0.1
	c1.7,1.3,3.4,2.7,5.2,4c-2.9,5.4-11.3,8.6-18.4,7c-8.5-1.8-14.6-9-15.2-17.8c-0.5-7.6,4.9-15.8,12.3-18.6c7.8-2.9,16.6-0.5,21.5,6.1
	C209,23.6,207.2,25,205.5,26.4z"/>
<path class="st0" d="M122.6,25.4c-1.4-0.1-2.4-0.2-3.6-0.3c0-2.6,0-5.2,0-7.9c3.6-0.9,3.6-0.9,3.6-4.8c0-1,0-2,0-3.1
	c2.7,0,5.2,0,8.1,0c0,1.2,0,2.4,0,3.6c0,3.7,0,3.7,3.7,4.2c0,2.6,0,5.2,0,7.9c-1.1,0.1-2.2,0.2-3.6,0.3c0,9.1,0,18.2,0,27.5
	c-2.9,0-5.4,0-8.2,0C122.6,43.7,122.6,34.7,122.6,25.4z"/>
<path class="st0" d="M223.4,52.9c-2.8,0-5.4,0-8.2,0c0-14.5,0-28.9,0-43.5c2.6,0,5.3,0,8.2,0C223.4,23.8,223.4,38.3,223.4,52.9z"/>
<path class="st0" d="M248.7,52.9c-2.8,0-5.4,0-8.3,0c0-2.4,0-4.7,0-7c0-4.2,0-8.3,0-12.5c0-6.8-2.4-9.7-9.2-10.9c0-2.7,0-5.4,0-8
	c5.8-0.9,12.7,2.7,15.5,8.4c0.9,1.8,1.8,3.7,1.9,5.6C248.8,36.6,248.7,44.6,248.7,52.9z"/>
<path d="M79.8,9.5c0,2.6,0,5.1,0,7.8c-2.6,0-5.2,0-8,0c0-2.5,0-5,0-7.8C74.4,9.5,77.1,9.5,79.8,9.5z"/>
<path class="st0" d="M254.1,44.7c2.7,0,5.2,0,8,0c0,2.7,0,5.3,0,8.1c-2.6,0-5.2,0-8,0C254.1,50.2,254.1,47.6,254.1,44.7z"/>
<path class="st1" d="M34.9,52.8h9.4l-20-45.4l-20,45.4H14l2.9-6.8h14.9L34.9,52.8z M20.2,38.5l4-9.3l4.2,9.3H20.2z"/>
<rect x="70.9" y="8.5" class="st2" width="9.3" height="9.3"/>
<path class="st1" d="M70.8,21.6v15.5c-0.7,1.3-4.1,7.5-9.3,7.4c-5.8-0.1-8.4-7.6-8.4-7.6V8.5h-8.9V40c0,0,4.1,13.3,17.5,13.5
	S79.5,40,79.5,40V21.6H70.8z"/>
<polygon class="st1" points="93.6,43.9 93.6,8.5 85.9,8.5 85.9,52.8 86.6,52.8 93.6,52.8 112.3,52.8 112.3,43.9 "/>
</svg>
